<svg width="60" height="61" viewBox="0 0 60 61" fill="none" xmlns="http://www.w3.org/2000/svg">
<g clip-path="url(#clip0_1403_460)">
<path d="M12.325 48.0085C9.93725 45.7023 8.03269 42.9437 6.72246 39.8936C5.41224 36.8435 4.72258 33.563 4.69374 30.2435C4.66489 26.924 5.29744 23.6321 6.55446 20.5596C7.81148 17.4872 9.66781 14.6959 12.0151 12.3486C14.3624 10.0013 17.1537 8.14498 20.2261 6.88795C23.2986 5.63093 26.5905 4.99839 29.91 5.02723C33.2295 5.05608 36.51 5.74574 39.5601 7.05596C42.6102 8.36619 45.3688 10.2707 47.675 12.6585C52.229 17.3736 54.7488 23.6886 54.6918 30.2435C54.6349 36.7984 52.0057 43.0688 47.3705 47.704C42.7353 52.3392 36.4649 54.9684 29.91 55.0253C23.3551 55.0823 17.0401 52.5625 12.325 48.0085ZM15.85 44.4835C19.6028 48.2363 24.6927 50.3446 30 50.3446C35.3073 50.3446 40.3972 48.2363 44.15 44.4835C47.9028 40.7307 50.0111 35.6408 50.0111 30.3335C50.0111 25.0262 47.9028 19.9363 44.15 16.1835C40.3972 12.4307 35.3073 10.3224 30 10.3224C24.6927 10.3224 19.6028 12.4307 15.85 16.1835C12.0972 19.9363 9.98888 25.0262 9.98888 30.3335C9.98888 35.6408 12.0972 40.7307 15.85 44.4835ZM40.6 23.2585L33.525 30.3335L40.6 37.4085L37.075 40.9335L30 33.8585L22.925 40.9335L19.4 37.4085L26.475 30.3335L19.4 23.2585L22.925 19.7335L30 26.8085L37.075 19.7335L40.6 23.2585Z" fill="white"/>
</g>
<defs>
<clipPath id="clip0_1403_460">
<rect width="50" height="50" fill="white" transform="translate(5 5.3335)"/>
</clipPath>
</defs>
</svg>
