<svg width="61" height="62" viewBox="0 0 61 62" fill="none" xmlns="http://www.w3.org/2000/svg">
<g clip-path="url(#clip0_1403_1175)">
<path d="M5.28906 30.7833C5.28906 24.3035 7.89993 18.0891 12.5473 13.5071C17.1947 8.9252 23.4979 6.3511 30.0703 6.3511C36.6427 6.3511 42.9459 8.9252 47.5933 13.5071C52.2407 18.0891 54.8516 24.3035 54.8516 30.7833C54.8516 37.2631 52.2407 43.4776 47.5933 48.0595C42.9459 52.6414 36.6427 55.2155 30.0703 55.2155C23.4979 55.2155 17.1947 52.6414 12.5473 48.0595C7.89994 43.4776 5.28906 37.2631 5.28906 30.7833ZM60.5703 30.7833C60.5703 22.8081 57.3569 15.1596 51.6371 9.52031C45.9172 3.88102 38.1594 0.712893 30.0703 0.712893C21.9812 0.712894 14.2234 3.88102 8.50355 9.52032C2.78369 15.1596 -0.429689 22.8081 -0.429689 30.7833C-0.429688 38.7585 2.7837 46.407 8.50356 52.0463C14.2234 57.6856 21.9812 60.8537 30.0703 60.8537C38.1594 60.8537 45.9172 57.6856 51.6371 52.0463C57.3569 46.407 60.5703 38.7585 60.5703 30.7833ZM44.9986 37.5844C45.499 35.9869 44.1527 34.5421 42.4609 34.5421L17.1436 34.5421C15.4518 34.5421 14.1055 35.9987 14.6059 37.5844C16.6074 43.9861 22.6598 48.6376 29.8082 48.6376C36.9566 48.6376 43.009 43.9861 44.9986 37.5844ZM43.3664 23.2657C43.3664 22.2688 42.9647 21.3127 42.2498 20.6078C41.5348 19.9029 40.565 19.5069 39.5539 19.5069C38.5428 19.5069 37.573 19.9029 36.8581 20.6078C36.1431 21.3127 35.7414 22.2688 35.7414 23.2657C35.7414 24.2626 36.1431 25.2187 36.8581 25.9236C37.573 26.6285 38.5428 27.0245 39.5539 27.0245C40.565 27.0245 41.5348 26.6285 42.2498 25.9236C42.9647 25.2187 43.3664 24.2626 43.3664 23.2657ZM20.4914 19.5069C19.4803 19.5069 18.5105 19.9029 17.7956 20.6078C17.0806 21.3127 16.6789 22.2688 16.6789 23.2657C16.6789 24.2626 17.0806 25.2187 17.7956 25.9236C18.5105 26.6285 19.4803 27.0245 20.4914 27.0245C21.5025 27.0245 22.4723 26.6285 23.1873 25.9236C23.9022 25.2187 24.3039 24.2626 24.3039 23.2657C24.3039 22.2688 23.9022 21.3127 23.1873 20.6078C22.4723 19.9029 21.5025 19.5069 20.4914 19.5069Z" fill="#F6911F"/>
</g>
<defs>
<clipPath id="clip0_1403_1175">
<rect width="61" height="61" fill="white" transform="matrix(-1 8.74228e-08 8.74228e-08 1 61 0.300049)"/>
</clipPath>
</defs>
</svg>
