<svg width="61" height="62" viewBox="0 0 61 62" fill="none" xmlns="http://www.w3.org/2000/svg">
<path d="M54.6547 30.7833C54.6547 37.078 52.1558 43.1149 47.7075 47.5659C43.2593 52.0169 37.2263 54.5174 30.9355 54.5174C24.6448 54.5174 18.6117 52.0169 14.1635 47.5659C9.71532 43.1149 7.21634 37.078 7.21634 30.7833C7.21634 24.4886 9.71532 18.4517 14.1635 14.0007C18.6117 9.54969 24.6448 7.04913 30.9355 7.04913C37.2263 7.04913 43.2593 9.54969 47.7075 14.0007C52.1558 18.4517 54.6547 24.4886 54.6547 30.7833ZM30.9355 1.57202C23.1931 1.57202 15.7678 4.64963 10.2931 10.1278C4.81834 15.606 1.74268 23.036 1.74268 30.7833C1.74268 38.5306 4.81834 45.9606 10.2931 51.4388C15.7678 56.917 23.1931 59.9946 30.9355 59.9946C38.678 59.9946 46.1033 56.917 51.578 51.4388C57.0527 45.9606 60.1284 38.5306 60.1284 30.7833C60.1284 23.036 57.0527 15.606 51.578 10.1278C46.1033 4.64963 38.678 1.57202 30.9355 1.57202ZM21.8584 28.9576C22.8262 28.9576 23.7543 28.5729 24.4387 27.8881C25.123 27.2033 25.5075 26.2746 25.5075 25.3062C25.5075 24.3378 25.123 23.409 24.4387 22.7242C23.7543 22.0395 22.8262 21.6548 21.8584 21.6548C20.8906 21.6548 19.9624 22.0395 19.2781 22.7242C18.5937 23.409 18.2093 24.3378 18.2093 25.3062C18.2093 26.2746 18.5937 27.2033 19.2781 27.8881C19.9624 28.5729 20.8906 28.9576 21.8584 28.9576ZM43.753 25.3062C43.753 24.3378 43.3686 23.409 42.6842 22.7242C41.9999 22.0395 41.0717 21.6548 40.1039 21.6548C39.1361 21.6548 38.2079 22.0395 37.5236 22.7242C36.8393 23.409 36.4548 24.3378 36.4548 25.3062C36.4548 26.2746 36.8393 27.2033 37.5236 27.8881C38.2079 28.5729 39.1361 28.9576 40.1039 28.9576C41.0717 28.9576 41.9999 28.5729 42.6842 27.8881C43.3686 27.2033 43.753 26.2746 43.753 25.3062ZM22.725 38.999C21.2084 38.999 19.9882 40.2199 19.9882 41.7375C19.9882 43.2551 21.2084 44.4761 22.725 44.4761H39.146C40.6627 44.4761 41.8829 43.2551 41.8829 41.7375C41.8829 40.2199 40.6627 38.999 39.146 38.999H22.725Z" fill="#D9D9D9"/>
</svg>
