<svg width="170" height="120" viewBox="0 0 170 120" fill="none" xmlns="http://www.w3.org/2000/svg">
<g clip-path="url(#clip0_1403_1085)">
<path d="M82.4459 59.7937C80.1092 59.5218 77.8521 58.8718 76.2902 57.0312C74.7437 55.2156 74.2812 52.725 74.2812 49.8437C74.2812 48.3843 74.5477 46.3468 74.7621 44.7281L74.808 44.375L70.4531 44.375C68.6064 44.375 66.8577 44.1093 65.3449 43.3343C63.7891 42.5406 62.5549 41.2125 61.8628 39.5843C60.4755 36.4656 60.5214 31.9375 61.2871 26.0969L61.4096 25.1406C61.7311 22.6719 62.0067 20.5375 62.3681 18.7875C62.7693 16.8187 63.3328 15.0094 64.4139 13.5625C66.7169 10.4781 70.5879 9.99998 75.8125 9.99998C81.472 9.99998 85.7166 11.0406 89.2508 12.0406C89.7561 12.1812 90.2399 12.3219 90.7054 12.4562C92.7206 13.0375 94.3804 13.5187 95.9883 13.7531C96.3419 12.6607 97.0242 11.71 97.9381 11.0362C98.8519 10.3623 99.9507 9.99976 101.078 9.99998L104.141 9.99998C105.562 9.99998 106.925 10.5761 107.93 11.6017C108.935 12.6273 109.5 14.0183 109.5 15.4687L109.5 38.9062C109.5 41.925 107.099 44.375 104.141 44.375L101.078 44.375C100.139 44.3751 99.2164 44.1234 98.4027 43.6452C97.589 43.1669 96.9126 42.4789 96.4415 41.65C95.6514 41.9781 94.6346 42.4875 93.6301 43.2375C91.5752 44.7687 89.5937 47.2531 89.5937 51.4062L89.5937 52.9687C89.5937 56.725 86.5496 60.2718 82.4459 59.7937ZM95.7188 18.4375C93.5597 18.1625 91.4619 17.55 89.3733 16.9437L88.0227 16.5531C84.6662 15.6 80.8748 14.6844 75.8125 14.6843C70.3184 14.6843 68.83 15.3812 68.0705 16.4C67.6203 17.0031 67.2253 17.9781 66.8639 19.7437C66.5423 21.3125 66.2881 23.2562 65.9604 25.775L65.8379 26.7125C65.0723 32.5937 65.2591 35.8781 66.0462 37.6406C66.3029 38.2924 66.7843 38.8259 67.3998 39.1406C68.0368 39.4656 68.9923 39.6843 70.4531 39.6843L75.8125 39.6843C77.9134 39.6844 79.7784 41.4875 79.5059 43.8593C79.4354 44.4593 79.3528 45.0781 79.2731 45.6906C79.0741 47.2156 78.875 48.7218 78.875 49.8406C78.875 52.3687 79.316 53.4343 79.757 53.9531C80.1766 54.4468 80.9881 54.9031 82.9665 55.1343C83.9067 55.2468 85 54.3968 85 52.9687L85 51.4062C85 45.4 87.9951 41.6312 90.9198 39.4531C92.3844 38.3659 94.0026 37.5124 95.7188 36.9219L95.7188 18.4375ZM101.078 39.6875L104.141 39.6875C104.344 39.6875 104.538 39.6052 104.682 39.4587C104.826 39.3121 104.906 39.1134 104.906 38.9062L104.906 15.4687C104.906 15.0375 104.563 14.6875 104.141 14.6875L101.078 14.6875C100.875 14.6875 100.68 14.7698 100.537 14.9163C100.393 15.0628 100.313 15.2615 100.313 15.4687L100.313 38.9062C100.313 39.1134 100.393 39.3121 100.537 39.4587C100.68 39.6052 100.875 39.6875 101.078 39.6875Z" fill="#D9D9D9"/>
</g>
<path d="M77.74 91.04C79.356 91.04 80.652 91.512 81.628 92.456C82.604 93.4 83.092 94.8 83.092 96.656V104H80.092V97.04C80.092 95.92 79.828 95.08 79.3 94.52C78.772 93.944 78.02 93.656 77.044 93.656C75.94 93.656 75.068 93.992 74.428 94.664C73.788 95.32 73.468 96.272 73.468 97.52V104H70.468V91.184H73.324V92.84C73.82 92.248 74.444 91.8 75.196 91.496C75.948 91.192 76.796 91.04 77.74 91.04ZM92.7749 104.168C91.4789 104.168 90.3109 103.888 89.2709 103.328C88.2309 102.768 87.4149 101.992 86.8229 101C86.2469 99.992 85.9589 98.856 85.9589 97.592C85.9589 96.328 86.2469 95.2 86.8229 94.208C87.4149 93.216 88.2309 92.44 89.2709 91.88C90.3109 91.32 91.4789 91.04 92.7749 91.04C94.0869 91.04 95.2629 91.32 96.3029 91.88C97.3429 92.44 98.1509 93.216 98.7269 94.208C99.3189 95.2 99.6149 96.328 99.6149 97.592C99.6149 98.856 99.3189 99.992 98.7269 101C98.1509 101.992 97.3429 102.768 96.3029 103.328C95.2629 103.888 94.0869 104.168 92.7749 104.168ZM92.7749 101.6C93.8789 101.6 94.7909 101.232 95.5109 100.496C96.2309 99.76 96.5909 98.792 96.5909 97.592C96.5909 96.392 96.2309 95.424 95.5109 94.688C94.7909 93.952 93.8789 93.584 92.7749 93.584C91.6709 93.584 90.7589 93.952 90.0389 94.688C89.3349 95.424 88.9829 96.392 88.9829 97.592C88.9829 98.792 89.3349 99.76 90.0389 100.496C90.7589 101.232 91.6709 101.6 92.7749 101.6Z" fill="black" fill-opacity="0.75"/>
<defs>
<clipPath id="clip0_1403_1085">
<rect width="49" height="50" fill="white" transform="translate(109.5 60) rotate(-180)"/>
</clipPath>
</defs>
</svg>
