<svg width="50" height="51" viewBox="0 0 50 51" fill="none" xmlns="http://www.w3.org/2000/svg">
<path d="M15 12.9575C14.337 12.9575 13.7011 13.2209 13.2322 13.6897C12.7634 14.1586 12.5 14.7945 12.5 15.4575C12.5 16.1205 12.7634 16.7564 13.2322 17.2253C13.7011 17.6941 14.337 17.9575 15 17.9575H35C35.663 17.9575 36.2989 17.6941 36.7678 17.2253C37.2366 16.7564 37.5 16.1205 37.5 15.4575C37.5 14.7945 37.2366 14.1586 36.7678 13.6897C36.2989 13.2209 35.663 12.9575 35 12.9575H15ZM12.5 25.5C12.5 24.837 12.7634 24.2011 13.2322 23.7322C13.7011 23.2634 14.337 23 15 23H35C35.663 23 36.2989 23.2634 36.7678 23.7322C37.2366 24.2011 37.5 24.837 37.5 25.5C37.5 26.163 37.2366 26.7989 36.7678 27.2678C36.2989 27.7366 35.663 28 35 28H15C14.337 28 13.7011 27.7366 13.2322 27.2678C12.7634 26.7989 12.5 26.163 12.5 25.5ZM15 33.0425C14.337 33.0425 13.7011 33.3059 13.2322 33.7747C12.7634 34.2436 12.5 34.8795 12.5 35.5425C12.5 36.2055 12.7634 36.8414 13.2322 37.3103C13.7011 37.7791 14.337 38.0425 15 38.0425H35C35.663 38.0425 36.2989 37.7791 36.7678 37.3103C37.2366 36.8414 37.5 36.2055 37.5 35.5425C37.5 34.8795 37.2366 34.2436 36.7678 33.7747C36.2989 33.3059 35.663 33.0425 35 33.0425H15Z" fill="white"/>
<path fill-rule="evenodd" clip-rule="evenodd" d="M50 25.5C50 39.3075 38.8075 50.5 25 50.5C11.1925 50.5 0 39.3075 0 25.5C0 11.6925 11.1925 0.5 25 0.5C38.8075 0.5 50 11.6925 50 25.5ZM45 25.5C45 30.8043 42.8929 35.8914 39.1421 39.6421C35.3914 43.3929 30.3043 45.5 25 45.5C19.6957 45.5 14.6086 43.3929 10.8579 39.6421C7.10714 35.8914 5 30.8043 5 25.5C5 20.1957 7.10714 15.1086 10.8579 11.3579C14.6086 7.60714 19.6957 5.5 25 5.5C30.3043 5.5 35.3914 7.60714 39.1421 11.3579C42.8929 15.1086 45 20.1957 45 25.5Z" fill="white"/>
</svg>
