<svg width="44" height="45" viewBox="0 0 44 45" fill="none" xmlns="http://www.w3.org/2000/svg">
<g clip-path="url(#clip0_1403_1082)">
<path d="M24.2935 0.185573C26.3917 0.430261 28.4185 1.01526 29.821 2.67182C31.2097 4.30589 31.625 6.54745 31.625 9.14057C31.625 10.454 31.3858 12.2878 31.1933 13.7446L31.152 14.0624H35.0625C36.7207 14.0624 38.291 14.3015 39.6495 14.999C41.0465 15.7134 42.1548 16.9087 42.7763 18.374C44.022 21.1809 43.9808 25.2562 43.2933 30.5128L43.1833 31.3734C42.8945 33.5953 42.647 35.5162 42.3225 37.0912C41.9622 38.8631 41.4562 40.4915 40.4855 41.7937C38.4175 44.5696 34.9415 45 30.25 45C25.168 45 21.3565 44.0634 18.183 43.1634C17.7292 43.0368 17.2948 42.9103 16.8768 42.7893C15.0673 42.2662 13.5768 41.8331 12.133 41.6221C11.8154 42.6053 11.2027 43.4609 10.3821 44.0674C9.56157 44.6738 8.5749 45.0002 7.5625 45H4.8125C3.53615 45 2.31207 44.4814 1.40955 43.5584C0.50703 42.6353 0 41.3834 0 40.0781L0 18.9843C0 16.2675 2.156 14.0624 4.8125 14.0624H7.5625C8.40574 14.0624 9.23421 14.2889 9.96492 14.7193C10.6956 15.1497 11.3029 15.7689 11.726 16.5149C12.4355 16.2196 13.3485 15.7612 14.2505 15.0862C16.0958 13.7081 17.875 11.4721 17.875 7.73432V6.32807C17.875 2.94745 20.6085 -0.244739 24.2935 0.185573ZM12.375 37.4062C14.3138 37.6537 16.1975 38.2049 18.073 38.7506L19.2857 39.1021C22.2997 39.9599 25.7043 40.784 30.25 40.784C35.1835 40.784 36.52 40.1568 37.202 39.2399C37.6063 38.6971 37.961 37.8196 38.2855 36.2306C38.5742 34.8187 38.8025 33.0693 39.0967 30.8024L39.2067 29.9587C39.8942 24.6656 39.7265 21.7096 39.0197 20.1234C38.7892 19.5368 38.3569 19.0566 37.8042 18.7734C37.2323 18.4809 36.3742 18.284 35.0625 18.284H30.25C28.3635 18.284 26.6887 16.6612 26.9335 14.5265C26.9967 13.9865 27.071 13.4296 27.1425 12.8784C27.3212 11.5059 27.5 10.1503 27.5 9.14339C27.5 6.86807 27.104 5.90901 26.708 5.44214C26.3312 4.99776 25.6025 4.58714 23.826 4.37901C22.9817 4.27776 22 5.04276 22 6.32807V7.73432C22 13.1399 19.3105 16.5318 16.6842 18.4921C15.3691 19.4706 13.9161 20.2388 12.375 20.7703V37.4062ZM7.5625 18.2812H4.8125C4.63016 18.2812 4.4553 18.3553 4.32636 18.4871C4.19743 18.619 4.125 18.7978 4.125 18.9843V40.0781C4.125 40.4662 4.433 40.7812 4.8125 40.7812H7.5625C7.74484 40.7812 7.9197 40.7071 8.04864 40.5753C8.17757 40.4434 8.25 40.2646 8.25 40.0781V18.9843C8.25 18.7978 8.17757 18.619 8.04864 18.4871C7.9197 18.3553 7.74484 18.2812 7.5625 18.2812Z" fill="#F6911F"/>
</g>
<defs>
<clipPath id="clip0_1403_1082">
<rect width="44" height="45" fill="white"/>
</clipPath>
</defs>
</svg>
