<svg width="52" height="53" viewBox="0 0 52 53" fill="none" xmlns="http://www.w3.org/2000/svg">
<path d="M26 0.973877C11.7916 0.973877 0.166626 12.573 0.166626 26.8589C0.166626 39.7755 9.62162 50.4964 21.97 52.4339V34.3505H15.4083V26.8589H21.97V21.1497C21.97 14.6655 25.8191 11.1005 31.735 11.1005C34.5508 11.1005 37.4958 11.5914 37.4958 11.5914V17.9722H34.2408C31.0375 17.9722 30.03 19.9614 30.03 22.0022V26.8589H37.2116L36.0491 34.3505H30.03V52.4339C36.1174 51.4725 41.6607 48.3665 45.6589 43.6765C49.6572 38.9866 51.8471 33.0218 51.8333 26.8589C51.8333 12.573 40.2083 0.973877 26 0.973877Z" fill="white"/>
</svg>
