<svg width="53" height="53" viewBox="0 0 53 53" fill="none" xmlns="http://www.w3.org/2000/svg">
<path d="M26.5 17.9664C21.7431 17.9664 17.9081 21.9039 17.9081 26.7039C17.9081 31.5039 21.78 35.4414 26.5 35.4414C31.22 35.4414 35.0919 31.5039 35.0919 26.7039C35.0919 21.9039 31.22 17.9664 26.5 17.9664ZM52.3125 26.7039C52.3125 23.0664 52.3125 19.5039 52.1281 15.8664C51.9437 11.6664 50.985 7.91636 47.9613 4.87886C44.9375 1.80386 41.2869 0.828857 37.1569 0.641357C33.58 0.453857 30.0769 0.453857 26.5 0.453857C22.9231 0.453857 19.42 0.453857 15.8431 0.641357C11.7131 0.828857 8.02563 1.80386 5.03875 4.87886C2.015 7.95386 1.05625 11.6664 0.871875 15.8664C0.6875 19.5039 0.6875 23.0664 0.6875 26.7039C0.6875 30.3414 0.6875 33.9039 0.871875 37.5414C1.05625 41.7414 2.015 45.4914 5.03875 48.5289C8.0625 51.6039 11.7131 52.5789 15.8431 52.7664C19.42 52.9539 22.9231 52.9539 26.5 52.9539C30.0769 52.9539 33.58 52.9539 37.1569 52.7664C41.2869 52.5789 44.9744 51.6039 47.9613 48.5289C50.985 45.4539 51.9437 41.7414 52.1281 37.5414C52.3494 33.9414 52.3125 30.3414 52.3125 26.7039ZM26.5 40.1664C19.1619 40.1664 13.2619 34.1664 13.2619 26.7039C13.2619 19.2414 19.1619 13.2414 26.5 13.2414C33.8381 13.2414 39.7381 19.2414 39.7381 26.7039C39.7381 34.1664 33.8381 40.1664 26.5 40.1664ZM40.2912 15.8289C38.595 15.8289 37.1937 14.4414 37.1937 12.6789C37.1937 10.9164 38.5581 9.52886 40.2912 9.52886C42.0244 9.52886 43.3887 10.9164 43.3887 12.6789C43.3981 13.0896 43.3243 13.498 43.1721 13.8785C43.0199 14.2591 42.7924 14.6039 42.5037 14.8914C42.221 15.1849 41.8821 15.4162 41.5078 15.571C41.1336 15.7259 40.732 15.8008 40.3281 15.7914L40.2912 15.8289Z" fill="white"/>
</svg>
