<svg width="33" height="34" viewBox="0 0 33 34" fill="none" xmlns="http://www.w3.org/2000/svg">
<path d="M31.4113 22.8896L23.6381 19.4065L23.6166 19.3966C23.2131 19.224 22.7729 19.1547 22.3358 19.195C21.8988 19.2354 21.4787 19.384 21.1136 19.6276C21.0706 19.656 21.0293 19.6868 20.9898 19.72L16.9737 23.1437C14.4294 21.9079 11.8025 19.3009 10.5667 16.7895L13.9954 12.7123C14.0284 12.6711 14.0598 12.6298 14.0895 12.5853C14.3278 12.2211 14.4724 11.8037 14.5104 11.3702C14.5484 10.9366 14.4786 10.5004 14.3073 10.1004V10.0806L10.8142 2.29414C10.5877 1.77152 10.1983 1.33616 9.70404 1.05306C9.2098 0.769956 8.63725 0.654289 8.07187 0.723324C5.83606 1.01753 3.78379 2.11556 2.29837 3.81231C0.812954 5.50907 -0.00402757 7.68852 1.49304e-05 9.94361C1.49304e-05 23.0447 10.6591 33.7038 23.7602 33.7038C26.0153 33.7079 28.1947 32.8909 29.8915 31.4055C31.5882 29.9201 32.6862 27.8678 32.9804 25.632C33.0496 25.0668 32.9342 24.4944 32.6514 24.0001C32.3686 23.5059 31.9336 23.1164 31.4113 22.8896ZM23.7602 31.0638C18.1606 31.0577 12.7922 28.8306 8.83274 24.8711C4.87326 20.9116 2.64615 15.5432 2.64003 9.94361C2.63383 8.33235 3.21432 6.77393 4.27311 5.55937C5.3319 4.34481 6.79658 3.55717 8.39363 3.34355C8.39297 3.35013 8.39297 3.35677 8.39363 3.36335L11.8586 11.1184L8.44807 15.2006C8.41346 15.2404 8.38201 15.2829 8.35402 15.3276C8.10572 15.7086 7.96006 16.1473 7.93115 16.6012C7.90224 17.0551 7.99107 17.5087 8.18902 17.9181C9.68393 20.9756 12.7645 24.0331 15.855 25.5264C16.2674 25.7225 16.7237 25.8082 17.1792 25.7753C17.6347 25.7423 18.0738 25.5917 18.4537 25.3383C18.4961 25.3097 18.5369 25.2789 18.5758 25.2459L22.587 21.8237L30.3421 25.297H30.3602C30.1492 26.8963 29.3628 28.364 28.148 29.4254C26.9332 30.4868 25.3733 31.0693 23.7602 31.0638Z" fill="white"/>
</svg>
