<svg width="49" height="48" viewBox="0 0 49 48" fill="none" xmlns="http://www.w3.org/2000/svg">
<path d="M44.9532 11.0138C37.7688 0.0787796 23.0563 -3.16122 11.6782 3.62253C0.57505 10.4063 -2.99995 25.1888 4.18442 36.09L4.7688 36.9675L2.36255 45.81L11.3688 43.4475L12.2625 44.0213C16.1469 46.08 20.375 47.2613 24.5688 47.2613C29.0719 47.2613 33.5751 46.08 37.4594 43.7175C48.5625 36.63 51.8625 22.1513 44.9532 10.9463V11.0138ZM38.6625 33.7613C37.4594 35.5163 35.9469 36.6975 33.85 37.0013C32.6469 37.0013 31.1344 37.575 25.1532 35.2463C20.0657 32.8838 15.8375 29.0363 12.8469 24.615C11.0594 22.5563 10.1313 19.89 9.8563 17.2238C9.8563 14.8613 10.75 12.8025 12.2625 11.3175C12.8469 10.7438 13.4657 10.44 14.05 10.44H15.5625C16.1469 10.44 16.7657 10.44 17.075 11.6213C17.6594 13.1063 19.1719 16.65 19.1719 16.9538C19.4813 17.2575 19.3438 19.5188 17.9688 20.8013C17.2125 21.645 17.075 21.6788 17.3844 22.2863C18.5875 24.0413 20.1 25.83 21.5782 27.315C23.3657 28.8 25.1875 29.9813 27.2844 30.8588C27.8688 31.1625 28.4875 31.1625 28.7969 30.555C29.1063 29.9813 30.5844 28.4963 31.2032 27.8888C31.7875 27.315 32.0969 27.315 32.7157 27.585L37.5282 29.9475C38.1125 30.2513 38.7313 30.5213 39.0407 30.825C39.35 31.7025 39.35 32.8838 38.7313 33.7613H38.6625Z" fill="white"/>
</svg>
